<svg width="101" height="101" viewBox="0 0 101 101" fill="none" xmlns="http://www.w3.org/2000/svg">
<path d="M69.0443 22.5698L77.7757 26.8161L62.073 84.1917L52.6817 84.1917L69.0443 22.5698Z" fill="#6C5CE7"/>
<path d="M65.0093 30.3682L67.3333 21.6948C62.4615 18.6156 56.6885 16.8333 50.5 16.8333C38.3379 16.8333 27.8171 23.7349 22.5356 33.8139C9.86854 35.1605 0 45.8918 0 58.9166C0 72.8672 11.2994 84.1666 25.25 84.1666H50.5941L52.8493 75.7499H25.25C15.9706 75.7499 8.41667 68.196 8.41667 58.9166C8.41667 49.6372 15.9706 42.0833 25.25 42.0833C34.5294 42.0833 42.0833 49.6372 42.0833 58.9166H50.5C50.5 47.3016 42.6515 37.5593 31.9833 34.6135C36.2127 28.9533 42.925 25.2499 50.5 25.2499C55.991 25.2499 61.0387 27.1672 65.0093 30.3682Z" fill="white"/>
<circle cx="79.9896" cy="63.9896" r="15.9896" stroke="#6C5CE7" stroke-width="8"/>
</svg>
