<svg width="138" height="40" viewBox="0 0 138 40" fill="none" xmlns="http://www.w3.org/2000/svg">
<path d="M55.3821 11.6313V23.1738C55.3821 25.6279 54.7092 27.5121 53.3634 28.8263C52.0333 30.1404 50.1887 30.7975 47.8295 30.7975C46.4361 30.7975 45.1695 30.5917 44.0294 30.18C42.8894 29.7842 41.9236 29.2142 41.1319 28.47L42.3907 26.095C43.8632 27.425 45.6603 28.09 47.782 28.09C50.7904 28.09 52.2946 26.4988 52.2946 23.3163V22.0575C51.1704 23.4825 49.5395 24.195 47.402 24.195C45.2961 24.195 43.6653 23.5934 42.5094 22.39C41.3536 21.1867 40.7756 19.4609 40.7756 17.2126V11.6313H43.8632V17.0701C43.8632 18.5267 44.2115 19.6351 44.9082 20.3951C45.6207 21.1392 46.6103 21.5113 47.877 21.5113C49.2229 21.5113 50.2916 21.1155 51.0833 20.3238C51.8908 19.5163 52.2946 18.3288 52.2946 16.7613V11.6313H55.3821Z" fill="#6C5CE7"/>
<path d="M30.0616 21.2976L27.4253 24.005V28.2563H24.3378V11.6313H27.4253V20.1576L35.643 11.6313H39.1105L32.1279 19.0651L39.538 28.2563H35.928L30.0616 21.2976Z" fill="#6C5CE7"/>
<path d="M14.5551 28.4937C13.2726 28.4937 12.0297 28.3116 10.8263 27.9475C9.63878 27.5833 8.69668 27.1004 8 26.4987L9.06877 24.1C9.74961 24.6383 10.5809 25.0816 11.5626 25.43C12.5601 25.7625 13.5576 25.9287 14.5551 25.9287C15.7901 25.9287 16.7085 25.7308 17.3102 25.335C17.9277 24.9391 18.2364 24.4167 18.2364 23.7675C18.2364 23.2925 18.0623 22.9046 17.7139 22.6037C17.3814 22.2871 16.9539 22.0417 16.4314 21.8675C15.9089 21.6933 15.1964 21.4954 14.2939 21.2738C13.0272 20.9729 11.998 20.6721 11.2063 20.3713C10.4305 20.0704 9.75753 19.6033 9.18752 18.97C8.63334 18.3208 8.35626 17.45 8.35626 16.3575C8.35626 15.4392 8.60168 14.6079 9.09252 13.8638C9.59919 13.1038 10.3513 12.5021 11.3488 12.0588C12.3622 11.6155 13.5972 11.3938 15.0539 11.3938C16.0672 11.3938 17.0647 11.5205 18.0464 11.7738C19.0281 12.0271 19.8752 12.3913 20.5877 12.8663L19.614 15.265C18.8856 14.8375 18.1256 14.513 17.3339 14.2913C16.5422 14.0696 15.7743 13.9588 15.0301 13.9588C13.8109 13.9588 12.9005 14.1646 12.2988 14.5763C11.713 14.9879 11.4201 15.5342 11.4201 16.215C11.4201 16.69 11.5863 17.0779 11.9188 17.3788C12.2672 17.6796 12.7026 17.9171 13.2251 18.0913C13.7476 18.2654 14.4601 18.4633 15.3626 18.685C16.5977 18.97 17.611 19.2708 18.4027 19.5875C19.1944 19.8883 19.8673 20.3554 20.4215 20.9888C20.9915 21.6221 21.2765 22.4771 21.2765 23.5537C21.2765 24.4721 21.0231 25.3033 20.5165 26.0475C20.0256 26.7916 19.2735 27.3854 18.2602 27.8287C17.2468 28.272 16.0118 28.4937 14.5551 28.4937Z" fill="#6C5CE7"/>
<path d="M125.08 34.5896C125.003 35.0466 124.607 35.3811 124.144 35.3811H61.4967C60.9001 35.3811 60.4512 34.8376 60.5638 34.2517L66.1359 5.27752C66.2219 4.83023 66.6133 4.50694 67.0688 4.50694H129.047C129.635 4.50694 130.082 5.03569 129.984 5.61543L125.08 34.5896Z" fill="#6C5CE7"/>
<path d="M119.58 28.4937C117.902 28.4937 116.382 28.1296 115.02 27.4012C113.674 26.6571 112.614 25.6358 111.838 24.3375C111.078 23.0392 110.698 21.5746 110.698 19.9438C110.698 18.3129 111.086 16.8484 111.862 15.55C112.637 14.2517 113.698 13.2384 115.044 12.51C116.406 11.7659 117.926 11.3938 119.604 11.3938C120.966 11.3938 122.209 11.6313 123.333 12.1063C124.457 12.5813 125.407 13.27 126.183 14.1725L124.188 16.0488C122.985 14.7504 121.504 14.1013 119.747 14.1013C118.607 14.1013 117.585 14.3546 116.683 14.8613C115.78 15.3521 115.076 16.0409 114.569 16.9275C114.062 17.8142 113.809 18.8196 113.809 19.9438C113.809 21.0679 114.062 22.0733 114.569 22.96C115.076 23.8467 115.78 24.5433 116.683 25.05C117.585 25.5408 118.607 25.7862 119.747 25.7862C121.504 25.7862 122.985 25.1291 124.188 23.815L126.183 25.715C125.407 26.6175 124.449 27.3062 123.309 27.7812C122.185 28.2562 120.942 28.4937 119.58 28.4937Z" fill="white"/>
<path d="M105.737 14.2201V25.6675H108.801V28.2563H99.6096V25.6675H102.673V14.2201H99.6096V11.6313H108.801V14.2201H105.737Z" fill="white"/>
<path d="M94.3744 28.2563L90.9781 23.3875C90.8356 23.4034 90.6218 23.4113 90.3368 23.4113H86.5843V28.2563H83.4967V11.6313H90.3368C91.7777 11.6313 93.0285 11.8688 94.0894 12.3438C95.1661 12.8188 95.9894 13.4997 96.5594 14.3863C97.1294 15.273 97.4144 16.3259 97.4144 17.5451C97.4144 18.7959 97.1057 19.8726 96.4882 20.7751C95.8865 21.6776 95.0157 22.3505 93.8756 22.7938L97.6995 28.2563H94.3744ZM94.3031 17.5451C94.3031 16.4842 93.9548 15.6688 93.2581 15.0988C92.5614 14.5288 91.5402 14.2438 90.1943 14.2438H86.5843V20.8701H90.1943C91.5402 20.8701 92.5614 20.5851 93.2581 20.0151C93.9548 19.4292 94.3031 18.6059 94.3031 17.5451Z" fill="white"/>
<path d="M77.2093 19.6113C78.1276 19.9121 78.856 20.4188 79.3943 21.1313C79.9327 21.828 80.2018 22.6988 80.2018 23.7438C80.2018 25.1846 79.6477 26.3009 78.5393 27.0925C77.431 27.8684 75.8159 28.2563 73.6942 28.2563H65.4291V11.6313H73.2192C75.1826 11.6313 76.6947 12.0193 77.7555 12.7951C78.8164 13.5551 79.3468 14.608 79.3468 15.9538C79.3468 16.7772 79.1568 17.5055 78.7768 18.1388C78.3968 18.7721 77.8743 19.263 77.2093 19.6113ZM68.5166 14.0538V18.6376H72.8867C73.9634 18.6376 74.7867 18.4476 75.3568 18.0676C75.9426 17.6717 76.2355 17.1017 76.2355 16.3576C76.2355 15.5976 75.9426 15.0276 75.3568 14.6476C74.7867 14.2518 73.9634 14.0538 72.8867 14.0538H68.5166ZM73.5042 25.8338C75.8951 25.8338 77.0905 25.0342 77.0905 23.435C77.0905 21.8359 75.8951 21.0363 73.5042 21.0363H68.5166V25.8338H73.5042Z" fill="white"/>
</svg>
